<?xml version="1.0" encoding="UTF-8"?>
<svg id="Layer_1" xmlns="http://www.w3.org/2000/svg" viewBox="0 0 731.356 185.695">
  <path d="M727.921,114.803l-72.831-38.744c-.581-.451-1.232-.801-1.945-1.035L513.538.757c-.093-.049-.192-.072-.286-.117-.212-.1-.427-.189-.65-.266-.191-.066-.382-.122-.576-.169-.21-.051-.422-.091-.639-.121-.217-.03-.432-.048-.65-.055-.113-.004-.222-.031-.337-.029-43.997.665-65.728,14.438-86.766,27.743-20.43,12.918-39.779,25.141-80.052,25.739-40.36.626-60.272-10.906-81.353-23.115-21.68-12.556-44.1-25.537-88.045-24.858-43.965.688-65.947,14.35-87.223,27.572-20.689,12.854-40.255,25.002-80.586,25.621-.097.002-.186.028-.281.034-.23.014-.454.044-.68.082-.202.034-.401.07-.596.121-.194.051-.38.118-.568.187-.22.08-.436.163-.644.265-.145.072-.282.155-.422.238-.229.135-.451.275-.66.436-.107.083-.207.174-.309.264-.22.193-.429.393-.62.614-.077.089-.148.184-.221.278-.193.249-.368.507-.523.783-.027.047-.063.085-.089.133-.032.06-.046.125-.076.185-.13.264-.242.535-.335.818-.052.155-.096.309-.135.466-.057.229-.102.461-.133.7-.029.214-.046.426-.053.64-.004.112-.029.218-.027.331.002.095.027.184.033.278.014.225.041.446.078.667.034.205.071.407.123.605.053.2.12.393.193.588.074.2.15.397.242.586.09.186.196.362.304.539.108.176.215.348.339.512.127.17.268.327.413.485.14.153.282.302.437.44.151.135.311.258.476.38.185.137.373.265.571.382.079.046.144.107.226.151l214.38,114.046c.065.034.135.04.2.072.455.224.932.405,1.44.517.048.011.095.033.144.042.438.087.89.133,1.354.126,43.931-.7,65.677-14.447,86.667-27.758,20.371-12.918,39.607-25.125,79.938-25.743,40.364-.627,60.276,10.906,81.357,23.114,21.68,12.554,44.1,25.537,88.045,24.856,4.454-.069,8.683-.271,12.707-.593,35.688-2.855,55.403-15.099,74.525-26.978,20.693-12.857,40.229-25.006,80.599-25.62.073-.001.14-.021.213-.025.13-.002.262.034.392.023,2.126-.17,4.125-1.389,5.202-3.413,1.68-3.155.483-7.075-2.674-8.755ZM147.327,132.661c-.06.001-.115.018-.174.021l-55.591-29.573c29.686-4.109,47.28-15.162,64.402-25.928,20.424-12.835,39.754-24.97,80.043-25.586,40.364-.627,60.276,10.906,81.357,23.114,3.145,1.821,6.316,3.647,9.555,5.443-4.165-.214-8.493-.324-13.109-.253-43.927.691-65.621,14.248-86.576,27.368-20.347,12.74-39.588,24.775-79.907,25.394ZM571.814,46.423l56.362,29.983c-29.437,4.171-47.138,15.143-64.365,25.844-20.693,12.857-40.22,25.016-80.603,25.623-40.364.624-60.276-10.906-81.358-23.116-3.145-1.821-6.316-3.647-9.555-5.443,4.165.214,8.493.324,13.109.253,4.459-.069,8.683-.271,12.707-.593,35.692-2.855,55.403-15.099,74.525-26.978,20.446-12.697,39.788-24.679,79.177-25.572ZM356.402,65.837c35.722-2.855,55.227-15.188,74.148-27.153,20.145-12.738,39.247-24.766,78.436-25.684l41.523,22.089c-29.657,4.124-47.402,15.169-64.698,25.911-20.693,12.855-40.247,24.988-80.603,25.621-37.517.582-57.364-9.343-76.908-20.549,4.852.313,9.998.442,15.48.357,4.429-.069,8.623-.271,12.622-.59ZM93.795,44.076c20.689-12.854,40.259-24.998,80.586-25.621,37.52-.58,57.367,9.343,76.909,20.551-4.852-.313-9.998-.442-15.481-.357-43.96.7-65.706,14.352-86.733,27.573-20.208,12.704-39.367,24.702-78.833,25.545l-41.009-21.816c29.55-4.151,47.294-15.148,64.562-25.876ZM300.687,147.004c-20.09,12.744-39.149,24.783-78.321,25.69l-53.733-28.585c30.361-3.953,48.182-15.046,65.469-25.869,20.343-12.74,39.554-24.785,79.906-25.396,40.36-.626,60.272,10.906,81.353,23.115,2.069,1.198,4.153,2.398,6.253,3.592-4.501-.26-9.22-.381-14.255-.303-43.983.679-65.685,14.445-86.672,27.756ZM637.36,141.598c-20.693,12.853-40.225,25.001-80.599,25.62-40.364.627-60.276-10.906-81.357-23.114-2.068-1.198-4.151-2.396-6.251-3.589,4.5.26,9.219.381,14.253.303,4.459-.069,8.683-.271,12.707-.593,35.692-2.855,55.403-15.099,74.529-26.978,20.365-12.651,39.684-24.59,78.741-25.559l52.643,28.005c-29.626,4.127-47.382,15.165-64.667,25.906Z"/>
</svg>